<svg width="97" height="97" viewBox="0 0 97 97" fill="none" xmlns="http://www.w3.org/2000/svg">
<rect width="97" height="97" rx="30" fill="white"/>
<path d="M53.5956 56.6752L52.483 66.515C51.5462 74.7995 58.7772 81.9717 65.9288 77.7531C73.0888 73.5295 70.2142 63.9462 62.6025 60.6159L53.5956 56.6752Z" fill="black"/>
<path d="M82.6029 48.5C82.6029 40.1536 72.8717 37.6539 66.1988 42.617L58.2892 48.5L66.1988 54.383C72.8717 59.3461 82.6029 56.8464 82.6029 48.5Z" fill="black"/>
<path d="M53.5956 40.3248L62.6025 36.3841C70.2142 33.0538 73.0888 23.4705 65.9288 19.247C58.7772 15.0283 51.5462 22.2005 52.483 30.485L53.5956 40.3248Z" fill="black"/>
<path d="M44.2085 40.3248L45.3211 30.485C46.2579 22.2005 39.0269 15.0283 31.8752 19.247C24.7153 23.4705 27.5899 33.0538 35.2015 36.3841L44.2085 40.3248Z" fill="black"/>
<path d="M15.2012 48.5C15.2012 40.1536 24.9323 37.6539 31.6053 42.617L39.5149 48.5L31.6053 54.383C24.9323 59.3461 15.2012 56.8464 15.2012 48.5Z" fill="black"/>
<path d="M44.2085 56.6752L35.2015 60.6159C27.5899 63.9462 24.7153 73.5295 31.8752 77.7531C39.0269 81.9717 46.2579 74.7995 45.3211 66.515L44.2085 56.6752Z" fill="black"/>
</svg>
