<svg width="155" height="36" viewBox="0 0 155 36" fill="none" xmlns="http://www.w3.org/2000/svg">
<path d="M22.8013 22.8247L22.1405 28.6318C21.5842 33.521 25.8785 37.7538 30.1256 35.2641C34.3777 32.7715 32.6706 27.1158 28.1502 25.1504L22.8013 22.8247Z" fill="black"/>
<path d="M40.0279 18C40.0279 13.0743 34.2488 11.599 30.286 14.5281L25.5887 18L30.286 21.4719C34.2488 24.401 40.0279 22.9257 40.0279 18Z" fill="black"/>
<path d="M22.8013 13.1753L28.1502 10.8496C32.6706 8.8842 34.3777 3.2285 30.1256 0.735906C25.8785 -1.75379 21.5842 2.479 22.1405 7.3682L22.8013 13.1753Z" fill="black"/>
<path d="M17.2266 13.1753L17.8873 7.3682C18.4436 2.479 14.1494 -1.75379 9.90223 0.735906C5.65013 3.2285 7.35726 8.8842 11.8776 10.8496L17.2266 13.1753Z" fill="black"/>
<path d="M0 18C0 13.0743 5.77905 11.599 9.74189 14.5281L14.4392 18L9.74189 21.4719C5.77905 24.401 0 22.9257 0 18Z" fill="black"/>
<path d="M17.2266 22.8247L11.8776 25.1504C7.35726 27.1158 5.65013 32.7715 9.90223 35.2641C14.1494 37.7538 18.4436 33.521 17.8873 28.6318L17.2266 22.8247Z" fill="black"/>
<path d="M60.3497 32.1702V8.19574H50.8046V4.25106H74.3594V8.19574H64.9298V32.1702H60.3497Z" fill="black"/>
<path d="M74.8279 32.1702V10.4936H78.8692L79.1386 13.7489C80.2933 11.4 82.0381 10.2255 84.373 10.2255C85.1684 10.2255 85.7714 10.3021 86.182 10.4553V14.6681H85.9126C85.4764 14.5149 84.9503 14.4383 84.3345 14.4383C82.8976 14.4383 81.743 14.8596 80.8706 15.7021C79.9982 16.5191 79.485 17.6426 79.331 19.0723V32.1702H74.8279Z" fill="black"/>
<path d="M96.3008 32.5532C93.8632 32.5532 91.9773 31.8894 90.643 30.5617C89.3087 29.2085 88.6416 27.383 88.6416 25.0851V10.4936H93.1447V24.5489C93.1447 25.8511 93.5168 26.8468 94.2609 27.5362C95.0307 28.2255 96.0699 28.5702 97.3785 28.5702C98.9693 28.5702 100.252 28.1106 101.227 27.1915C102.228 26.2468 102.741 25.0213 102.767 23.5149V10.4936H107.27V32.1702H103.113L102.921 28.9915C102.202 30.1149 101.266 30.9957 100.111 31.634C98.9565 32.2468 97.6864 32.5532 96.3008 32.5532Z" fill="black"/>
<path d="M111.739 32.1702V10.4936H115.857L116.088 13.6723C117.833 11.2979 120.168 10.1106 123.093 10.1106C125.3 10.1106 127.096 10.7362 128.482 11.9872C129.867 13.2383 130.56 15.1277 130.56 17.6553V32.1702H126.095V18.1915C126.095 16.9149 125.723 15.9064 124.979 15.166C124.235 14.4255 123.144 14.0553 121.708 14.0553C120.219 14.0553 118.936 14.5277 117.859 15.4723C116.807 16.3915 116.268 17.6681 116.242 19.3021V32.1702H111.739Z" fill="black"/>
<path d="M135.025 32.1702V1.91489H139.528V19.417L148.611 10.4936H154.269L145.84 18.4213L155 32.1702H149.689L142.722 21.4085L139.528 24.3957V32.1702H135.025Z" fill="black"/>
</svg>
